<?xml version="1.0" standalone="no"?>
<!DOCTYPE svg PUBLIC "-//W3C//DTD SVG 20010904//EN"
 "http://www.w3.org/TR/2001/REC-SVG-20010904/DTD/svg10.dtd">
<svg version="1.0" xmlns="http://www.w3.org/2000/svg"
 width="450.000000pt" height="300.000000pt" viewBox="0 0 450.000000 300.000000"
 preserveAspectRatio="xMidYMid meet">

<g transform="translate(0.000000,300.000000) scale(0.100000,-0.100000)"
fill="#000000" stroke="none">
<path d="M1410 2764 c-45 -20 -96 -69 -123 -119 -22 -39 -22 -47 -22 -525 0
-482 0 -485 22 -526 43 -81 129 -134 217 -134 35 0 36 1 36 39 l0 38 -49 5
c-56 6 -104 35 -129 81 -15 29 -17 75 -17 497 0 447 1 466 20 499 11 19 33 43
48 55 28 21 30 21 872 21 836 0 844 0 872 -21 15 -11 38 -40 51 -64 22 -44 22
-47 22 -490 0 -443 0 -446 -23 -490 -29 -57 -64 -82 -126 -88 l-51 -5 0 -38
c0 -38 1 -39 36 -39 67 0 117 22 170 75 76 75 76 77 72 615 -3 444 -4 456 -25
495 -12 22 -36 54 -55 72 -69 66 -21 63 -945 63 -726 -1 -843 -3 -873 -16z"/>
<path d="M2752 2394 c-52 -36 -52 -36 -52 -556 0 -544 -1 -535 73 -572 34 -16
42 -17 74 -5 20 8 45 27 57 42 21 28 21 39 24 495 2 257 0 487 -3 511 -9 63
-49 101 -107 101 -24 0 -54 -7 -66 -16z"/>
<path d="M2052 2120 c-18 -11 -37 -32 -42 -46 -6 -15 -10 -174 -10 -382 0
-334 1 -359 19 -388 40 -66 142 -66 182 0 18 29 19 54 19 389 0 393 -1 402
-60 432 -39 20 -69 19 -108 -5z"/>
<path d="M2412 1953 c-61 -30 -63 -42 -60 -354 l3 -281 33 -29 c55 -49 138
-36 171 28 7 14 11 115 11 300 0 309 -1 312 -66 339 -42 18 -51 17 -92 -3z"/>
<path d="M1723 1729 c-17 -5 -41 -21 -52 -35 -19 -25 -21 -40 -21 -198 0 -188
4 -202 60 -231 37 -19 54 -19 96 1 57 27 64 53 64 226 0 163 -6 188 -50 219
-34 24 -59 29 -97 18z"/>
<path d="M500 690 l0 -350 40 0 40 0 0 128 0 129 99 10 c122 12 177 40 218
111 54 92 31 226 -47 279 -50 35 -94 43 -227 43 l-123 0 0 -350z m275 256 c41
-17 65 -60 65 -116 0 -101 -62 -150 -188 -150 l-72 0 0 140 0 140 80 0 c47 0
95 -6 115 -14z"/>
<path d="M3480 689 l0 -351 138 4 c120 3 143 6 185 27 144 70 141 289 -4 332
l-39 12 28 17 c94 57 116 184 45 252 -50 48 -91 58 -228 58 l-125 0 0 -351z
m220 272 c63 -13 94 -50 87 -108 -8 -77 -62 -113 -167 -113 l-60 0 0 115 0
115 48 0 c26 -1 67 -5 92 -9z m11 -301 c74 -14 109 -52 109 -118 0 -87 -47
-122 -177 -130 l-83 -5 0 132 0 131 49 0 c26 0 73 -4 102 -10z"/>
<path d="M4050 690 l0 -350 40 0 40 0 0 350 0 350 -40 0 -40 0 0 -350z"/>
<path d="M1150 841 c-109 -34 -170 -124 -170 -254 0 -86 18 -135 70 -188 53
-56 106 -74 195 -66 109 8 175 59 209 160 30 90 14 210 -37 279 -34 45 -110
78 -181 77 -34 0 -72 -4 -86 -8z m175 -87 c40 -26 60 -81 60 -164 0 -116 -36
-171 -124 -191 -46 -10 -101 4 -140 37 -84 71 -79 250 10 316 51 38 137 39
194 2z"/>
<path d="M2430 834 c-65 -28 -116 -93 -134 -169 -4 -16 -7 -58 -7 -92 1 -112
59 -204 147 -233 49 -16 169 -8 217 15 33 17 37 23 37 55 l0 37 -47 -23 c-61
-31 -153 -33 -201 -4 -34 21 -71 87 -72 128 0 22 0 22 175 22 l175 0 0 63 c-1
97 -49 178 -123 206 -40 16 -126 13 -167 -5z m159 -73 c25 -16 51 -67 51 -101
0 -19 -6 -20 -136 -20 l-135 0 7 23 c20 65 44 93 100 112 40 14 78 9 113 -14z"/>
<path d="M3002 833 c-18 -10 -41 -31 -52 -48 l-20 -30 0 43 0 42 -40 0 -40 0
0 -250 0 -250 40 0 40 0 0 163 c0 139 3 168 20 205 24 54 76 80 128 64 l33
-10 -3 41 c-3 40 -5 42 -38 45 -20 1 -49 -5 -68 -15z"/>
<path d="M1533 828 c2 -7 32 -105 66 -218 34 -113 67 -220 72 -238 10 -31 13
-33 51 -30 l41 3 60 193 61 193 55 -193 56 -193 42 -3 42 -3 30 98 c16 54 49
161 72 238 23 77 44 146 46 153 4 8 -7 12 -35 12 -46 0 -36 24 -108 -245 -36
-139 -53 -187 -54 -155 0 8 -23 102 -52 208 l-52 192 -36 0 -37 0 -41 -132
c-22 -73 -51 -167 -63 -209 l-22 -77 -32 122 c-18 66 -43 160 -56 209 l-23 87
-44 0 c-31 0 -43 -4 -39 -12z"/>
</g>
</svg>
